<?xml version="1.0" encoding="UTF-8" standalone="no"?>
<!DOCTYPE svg PUBLIC "-//W3C//DTD SVG 1.1//EN"
 "http://www.w3.org/Graphics/SVG/1.1/DTD/svg11.dtd">
<!-- Generated by graphviz version 2.40.1 (20161225.0304)
 -->
<!-- Title: G Pages: 1 -->
<svg width="741pt" height="248pt"
 viewBox="0.00 0.00 740.86 248.00" xmlns="http://www.w3.org/2000/svg" xmlns:xlink="http://www.w3.org/1999/xlink">
<g id="graph0" class="graph" transform="scale(1 1) rotate(0) translate(4 244)">
<title>G</title>
<polygon fill="#ffffff" stroke="transparent" points="-4,4 -4,-244 736.8558,-244 736.8558,4 -4,4"/>
<g id="clust1" class="cluster">
<title>cluster_Global</title>
<path fill="none" stroke="#c0c0c0" d="M557.8558,-8C557.8558,-8 712.8558,-8 712.8558,-8 718.8558,-8 724.8558,-14 724.8558,-20 724.8558,-20 724.8558,-220 724.8558,-220 724.8558,-226 718.8558,-232 712.8558,-232 712.8558,-232 557.8558,-232 557.8558,-232 551.8558,-232 545.8558,-226 545.8558,-220 545.8558,-220 545.8558,-20 545.8558,-20 545.8558,-14 551.8558,-8 557.8558,-8"/>
<text text-anchor="middle" x="635.3558" y="-219.2" font-family="Times,serif" font-size="11.00" fill="#c0c0c0">Global</text>
</g>
<g id="clust2" class="cluster">
<title>cluster_\App</title>
<path fill="none" stroke="#c0c0c0" d="M565.8558,-16C565.8558,-16 704.8558,-16 704.8558,-16 710.8558,-16 716.8558,-22 716.8558,-28 716.8558,-28 716.8558,-192 716.8558,-192 716.8558,-198 710.8558,-204 704.8558,-204 704.8558,-204 565.8558,-204 565.8558,-204 559.8558,-204 553.8558,-198 553.8558,-192 553.8558,-192 553.8558,-28 553.8558,-28 553.8558,-22 559.8558,-16 565.8558,-16"/>
<text text-anchor="middle" x="635.3558" y="-191.2" font-family="Times,serif" font-size="11.00" fill="#c0c0c0">App</text>
</g>
<g id="clust3" class="cluster">
<title>cluster_\App\Controller</title>
<path fill="none" stroke="#c0c0c0" d="M573.8558,-104C573.8558,-104 696.8558,-104 696.8558,-104 702.8558,-104 708.8558,-110 708.8558,-116 708.8558,-116 708.8558,-164 708.8558,-164 708.8558,-170 702.8558,-176 696.8558,-176 696.8558,-176 573.8558,-176 573.8558,-176 567.8558,-176 561.8558,-170 561.8558,-164 561.8558,-164 561.8558,-116 561.8558,-116 561.8558,-110 567.8558,-104 573.8558,-104"/>
<text text-anchor="middle" x="635.3558" y="-163.2" font-family="Times,serif" font-size="11.00" fill="#c0c0c0">Controller</text>
</g>
<g id="clust4" class="cluster">
<title>cluster_\App\Service</title>
<path fill="none" stroke="#c0c0c0" d="M587.3558,-24C587.3558,-24 683.3558,-24 683.3558,-24 689.3558,-24 695.3558,-30 695.3558,-36 695.3558,-36 695.3558,-84 695.3558,-84 695.3558,-90 689.3558,-96 683.3558,-96 683.3558,-96 587.3558,-96 587.3558,-96 581.3558,-96 575.3558,-90 575.3558,-84 575.3558,-84 575.3558,-36 575.3558,-36 575.3558,-30 581.3558,-24 587.3558,-24"/>
<text text-anchor="middle" x="635.3558" y="-83.2" font-family="Times,serif" font-size="11.00" fill="#c0c0c0">Service</text>
</g>
<!-- \\App\\Controller\\CrawlerController -->
<g id="node1" class="node">
<title>\\App\\Controller\\CrawlerController</title>
<polygon fill="none" stroke="#000000" points="700.8558,-148 569.8558,-148 569.8558,-112 700.8558,-112 700.8558,-148"/>
<text text-anchor="middle" x="635.3558" y="-127.2" font-family="Courier,monospace" font-size="11.00" fill="#000000">CrawlerController</text>
</g>
<!-- \\Symfony\\Bundle\\FrameworkBundle\\Controller\\AbstractController -->
<g id="node3" class="node">
<title>\\Symfony\\Bundle\\FrameworkBundle\\Controller\\AbstractController</title>
<ellipse fill="none" stroke="#000000" cx="248.9279" cy="-130" rx="248.8558" ry="18"/>
<text text-anchor="middle" x="248.9279" y="-126.3" font-family="Times,serif" font-size="14.00" fill="#c0c0c0">\Symfony\Bundle\FrameworkBundle\Controller\AbstractController</text>
</g>
<!-- \\App\\Controller\\CrawlerController&#45;&gt;\\Symfony\\Bundle\\FrameworkBundle\\Controller\\AbstractController -->
<g id="edge1" class="edge">
<title>\\App\\Controller\\CrawlerController&#45;&gt;\\Symfony\\Bundle\\FrameworkBundle\\Controller\\AbstractController</title>
<path fill="none" stroke="#000000" d="M569.8036,-130C551.5152,-130 530.4647,-130 508.0717,-130"/>
<polygon fill="none" stroke="#000000" points="508.0469,-126.5001 498.0469,-130 508.0468,-133.5001 508.0469,-126.5001"/>
</g>
<!-- \\App\\Service\\SpotifyHelper -->
<g id="node2" class="node">
<title>\\App\\Service\\SpotifyHelper</title>
<polygon fill="none" stroke="#000000" points="687.3558,-68 583.3558,-68 583.3558,-32 687.3558,-32 687.3558,-68"/>
<text text-anchor="middle" x="635.3558" y="-47.2" font-family="Courier,monospace" font-size="11.00" fill="#000000">SpotifyHelper</text>
</g>
</g>
</svg>
